<svg width="20.000000" height="20.000000" viewBox="0 0 20 20" fill="none" xmlns="http://www.w3.org/2000/svg" xmlns:xlink="http://www.w3.org/1999/xlink">
	<defs>
		<clipPath id="clip171_8074">
			<rect id="Настройки" width="20.000000" height="20.000000" fill="white" fill-opacity="0"/>
		</clipPath>
	</defs>
	<rect id="Настройки" width="20.000000" height="20.000000" fill="#FFFFFF" fill-opacity="0"/>
	<g clip-path="url(#clip171_8074)">
		<path id="Rectangle 5" d="M16.23 10L13.23 15.19L16.49 16.69C17.43 17.12 18.54 16.77 19.05 15.87L19.73 14.7C20.25 13.8 20 12.66 19.16 12.07L16.23 10Z" fill="#E9E9FF" fill-opacity="1.000000" fill-rule="nonzero"/>
		<path id="Rectangle 8" d="M3.79 10L6.79 15.19L3.53 16.69C2.6 17.12 1.48 16.77 0.97 15.87L0.29 14.7C-0.23 13.8 0.02 12.66 0.87 12.07L3.79 10Z" fill="#E9E9FF" fill-opacity="1.000000" fill-rule="nonzero"/>
		<path id="Rectangle 2" d="M7 5L13 5L12.68 1.8C12.57 0.77 11.71 0 10.69 0L9.3 0C8.28 0 7.42 0.77 7.31 1.8L7 5Z" fill="#E9E9FF" fill-opacity="1.000000" fill-rule="nonzero"/>
		<path id="Rectangle 7" d="M7 15L13 15L12.68 18.19C12.57 19.22 11.71 20 10.69 20L9.3 20C8.28 20 7.42 19.22 7.31 18.19L7 15Z" fill="#E9E9FF" fill-opacity="1.000000" fill-rule="nonzero"/>
		<path id="Rectangle 6" d="M6.77 4.77L3.77 9.97L0.86 7.91C0.02 7.31 -0.23 6.17 0.29 5.28L0.97 4.1C1.48 3.21 2.59 2.85 3.53 3.29L6.77 4.77Z" fill="#E9E9FF" fill-opacity="1.000000" fill-rule="nonzero"/>
		<path id="Rectangle 9" d="M13.25 4.77L16.25 9.97L19.16 7.91C20 7.31 20.25 6.17 19.73 5.28L19.05 4.1C18.54 3.21 17.43 2.85 16.49 3.29L13.25 4.77Z" fill="#E9E9FF" fill-opacity="1.000000" fill-rule="nonzero"/>
		<circle id="Ellipse 1" cx="10.000000" cy="10.000000" r="7.000000" fill="#E9E9FF" fill-opacity="1.000000"/>
		<circle id="Ellipse 2" cx="10.000000" cy="10.000000" r="4.000000" fill="#9999EE" fill-opacity="1.000000"/>
	</g>
</svg>
