<svg width="20.000000" height="20.000000" viewBox="0 0 20 20" fill="none" xmlns="http://www.w3.org/2000/svg" xmlns:xlink="http://www.w3.org/1999/xlink">
	<desc>
			Created with Pixso.
	</desc>
	<defs>
		<clipPath id="clip171_7939">
			<rect id="Поиск" width="20.000000" height="20.000000" transform="translate(0.000000 -0.500000)" fill="white" fill-opacity="0"/>
		</clipPath>
	</defs>
	<rect id="Поиск" width="20.000000" height="20.000000" transform="translate(0.000000 -0.500000)" fill="#FFFFFF" fill-opacity="0"/>
	<g clip-path="url(#clip171_7939)">
		<path id="Vector 2 (Stroke)" d="M12.79 12.29C13.18 11.9 13.81 11.9 14.2 12.29L19.7 17.79C20.09 18.18 20.09 18.81 19.7 19.2C19.31 19.59 18.68 19.59 18.29 19.2L12.79 13.7C12.4 13.31 12.4 12.68 12.79 12.29Z" fill="#D1D1DD" fill-opacity="1.000000" fill-rule="evenodd"/>
		<path id="Subtract" d="M8 15.5C12.41 15.5 16 11.91 16 7.5C16 3.08 12.41 -0.5 8 -0.5C3.58 -0.5 0 3.08 0 7.5C0 11.91 3.58 15.5 8 15.5ZM8 13.5C11.31 13.5 14 10.81 14 7.5C14 4.18 11.31 1.5 8 1.5C4.68 1.5 2 4.18 2 7.5C2 10.81 4.68 13.5 8 13.5Z" fill="#A4A4BA" fill-opacity="1.000000" fill-rule="evenodd"/>
	</g>
</svg>
