<svg width="20.000000" height="20.000000" viewBox="0 0 20 20" fill="none" xmlns="http://www.w3.org/2000/svg" xmlns:xlink="http://www.w3.org/1999/xlink">
	<desc>
			Created with Pixso.
	</desc>
	<defs>
		<clipPath id="clip1_18">
			<rect id="lock" width="20.000000" height="20.000000" fill="white" fill-opacity="0"/>
		</clipPath>
	</defs>
	<rect id="lock" width="20.000000" height="20.000000" fill="#FFFFFF" fill-opacity="0"/>
	<g clip-path="url(#clip1_18)">
		<path id="Vector" d="M15.83 9.16C16.75 9.16 17.5 9.91 17.5 10.83L17.5 16.66C17.5 17.58 16.75 18.33 15.83 18.33L4.16 18.33C3.24 18.33 2.5 17.58 2.5 16.66L2.5 10.83C2.5 9.91 3.24 9.16 4.16 9.16L15.83 9.16Z" stroke="#FFFFFF" stroke-opacity="1.000000" stroke-width="1.000000" stroke-linejoin="round"/>
		<path id="Vector" d="M5.83 9.16L5.83 5.83C5.83 4.72 6.27 3.66 7.05 2.88C7.83 2.1 8.89 1.66 10 1.66C11.1 1.66 12.16 2.1 12.94 2.88C13.72 3.66 14.16 4.72 14.16 5.83L14.16 " stroke="#FFFFFF" stroke-opacity="1.000000" stroke-width="1.000000" stroke-linejoin="round" stroke-linecap="round"/>
	</g>
</svg>
