<svg width="20.000000" height="20.000000" viewBox="0 0 20 20" fill="none" xmlns="http://www.w3.org/2000/svg" xmlns:xlink="http://www.w3.org/1999/xlink">
	<desc>
			Created with Pixso.
	</desc>
	<defs>
		<clipPath id="clip1_12">
			<rect id="user" width="20.000000" height="20.000000" fill="white" fill-opacity="0"/>
		</clipPath>
	</defs>
	<rect id="user" width="20.000000" height="20.000000" fill="#FFFFFF" fill-opacity="0"/>
	<g clip-path="url(#clip1_12)">
		<path id="Vector" d="M16.66 17.5L16.66 15.83C16.66 14.94 16.31 14.1 15.69 13.47C15.06 12.85 14.21 12.5 13.33 12.5L6.66 12.5C5.78 12.5 4.93 12.85 4.3 13.47C3.68 14.1 3.33 14.94 3.33 15.83L3.33 " stroke="#FFFFFF" stroke-opacity="1.000000" stroke-width="1.000000" stroke-linejoin="round" stroke-linecap="round"/>
		<path id="Vector" d="M9.99 9.16C8.15 9.16 6.66 7.67 6.66 5.83C6.66 3.99 8.15 2.5 9.99 2.5C11.84 2.5 13.33 3.99 13.33 5.83C13.33 7.67 11.84 9.16 9.99 9.16Z" stroke="#FFFFFF" stroke-opacity="1.000000" stroke-width="1.000000" stroke-linejoin="round"/>
	</g>
</svg>
