<svg width="32.000000" height="32.000000" viewBox="0 0 32 32" fill="none" xmlns="http://www.w3.org/2000/svg" xmlns:xlink="http://www.w3.org/1999/xlink">
	<desc>
			Created with Pixso.
	</desc>
	<defs/>
	<path id="Лого" d="M16 32C24.83 32 32 24.83 32 16C32 7.16 24.83 0 16 0C7.16 0 0 7.16 0 16C0 24.83 7.16 32 16 32ZM18.46 12.36C19.83 10.99 19.83 8.78 18.46 7.42C17.1 6.05 14.89 6.05 13.53 7.42C12.16 8.78 12.16 10.99 13.53 12.36L16 14.83L18.46 12.36ZM19.63 18.46C21 19.83 23.21 19.83 24.57 18.46C25.94 17.1 25.94 14.89 24.57 13.53C23.21 12.16 21 12.16 19.63 13.53L17.16 16L19.63 18.46ZM18.46 24.57C19.83 23.21 19.83 21 18.46 19.63L16 17.16L13.53 19.63C12.16 21 12.16 23.21 13.53 24.57C14.89 25.94 17.1 25.94 18.46 24.57ZM7.42 18.46C6.05 17.1 6.05 14.89 7.42 13.53C8.78 12.16 10.99 12.16 12.36 13.53L14.83 16L12.36 18.46C10.99 19.83 8.78 19.83 7.42 18.46Z" fill="#FFFFFF" fill-opacity="1.000000" fill-rule="evenodd"/>
</svg>
